<svg width="217" height="130" viewBox="0 0 217 130" fill="none" xmlns="http://www.w3.org/2000/svg">
<path d="M109.653 7.17777L76.8316 33.722C71.3727 38.1235 70.3216 46.0461 74.4581 51.7003C78.832 57.7269 87.3425 58.9119 93.2083 54.3412L126.877 28.2032C129.251 26.3749 132.641 26.7812 134.506 29.1512C136.371 31.5213 135.93 34.907 133.557 36.7692L126.47 42.2541L186.552 97.5094H200.725C209.71 97.5094 217 90.23 217 81.2578V37.9203C217 28.9481 209.71 21.6688 200.725 21.6688H173.363L172.04 20.8223L147.424 5.07861C142.237 1.76059 136.168 0 129.997 0C122.605 0 115.417 2.53931 109.653 7.17777ZM117.383 49.2964L99.8539 62.9071C89.1734 71.236 73.6783 69.0691 65.6764 58.0993C58.1492 47.7728 60.048 33.3496 69.9825 25.3254L98.1925 2.53931C94.2594 0.880293 90.0211 0.0338569 85.715 0.0338569C79.3406 -5.17128e-07 73.1358 1.89602 67.8125 5.41719L43.4 21.6688H16.275C7.28984 21.6688 0 28.9481 0 37.9203V81.2578C0 90.23 7.28984 97.5094 16.275 97.5094H52.9616L83.9519 125.746C90.5975 131.807 100.871 131.333 106.94 124.697C108.805 122.632 110.06 120.228 110.704 117.722L116.468 123.004C123.08 129.064 133.387 128.624 139.456 122.022C140.982 120.363 142.101 118.433 142.813 116.436C149.391 120.837 158.342 119.923 163.869 113.896C169.938 107.294 169.497 97.0015 162.886 90.941L117.383 49.2964Z" fill="url(#paint0_linear_203_15)"/>
<defs>
<linearGradient id="paint0_linear_203_15" x1="83.4808" y1="21.7501" x2="101.385" y2="136.502" gradientUnits="userSpaceOnUse">
<stop stop-color="#425AFA"/>
<stop offset="0.16" stop-color="#5A52F2"/>
<stop offset="0.55" stop-color="#9241DE"/>
<stop offset="0.84" stop-color="#B436D3"/>
<stop offset="1" stop-color="#C132CE"/>
</linearGradient>
</defs>
</svg>
